<svg xmlns="http://www.w3.org/2000/svg" xmlns:xlink="http://www.w3.org/1999/xlink" version="1.1" width="256" height="256" viewBox="0 0 256 256" xml:space="preserve">

<defs>
</defs>
<g style="stroke: none; stroke-width: 0; stroke-dasharray: none; stroke-linecap: butt; stroke-linejoin: miter; stroke-miterlimit: 10; fill: none; fill-rule: nonzero; opacity: 1;" transform="translate(1.4065934065934016 1.4065934065934016) scale(2.81 2.81)" >
	<rect x="0" y="24.64" rx="0" ry="0" width="90" height="40.73" style="stroke: none; stroke-width: 1; stroke-dasharray: none; stroke-linecap: butt; stroke-linejoin: miter; stroke-miterlimit: 10; fill: rgb(19,25,33); fill-rule: nonzero; opacity: 1;" transform=" matrix(1 0 0 1 0 0) "/>
	<path d="M 52.825 52.525 c -3.776 2.787 -9.252 4.269 -13.967 4.269 c -6.608 0 -12.558 -2.443 -17.061 -6.509 c -0.353 -0.32 -0.038 -0.756 0.387 -0.508 c 4.858 2.827 10.866 4.53 17.071 4.53 c 4.186 0 8.787 -0.869 13.021 -2.665 C 52.915 51.371 53.45 52.063 52.825 52.525 z" style="stroke: none; stroke-width: 1; stroke-dasharray: none; stroke-linecap: butt; stroke-linejoin: miter; stroke-miterlimit: 10; fill: rgb(247,156,52); fill-rule: nonzero; opacity: 1;" transform=" matrix(1 0 0 1 0 0) " stroke-linecap="round" />
	<path d="M 54.397 50.73 c -0.483 -0.618 -3.193 -0.293 -4.41 -0.147 c -0.369 0.045 -0.426 -0.278 -0.094 -0.511 c 2.162 -1.519 5.704 -1.08 6.116 -0.571 c 0.415 0.512 -0.109 4.064 -2.135 5.759 c -0.312 0.261 -0.608 0.122 -0.47 -0.222 C 53.86 53.898 54.88 51.349 54.397 50.73 z" style="stroke: none; stroke-width: 1; stroke-dasharray: none; stroke-linecap: butt; stroke-linejoin: miter; stroke-miterlimit: 10; fill: rgb(247,156,52); fill-rule: nonzero; opacity: 1;" transform=" matrix(1 0 0 1 0 0) " stroke-linecap="round" />
	<path d="M 50.072 39.345 V 37.87 c 0.001 -0.225 0.17 -0.374 0.374 -0.373 l 6.613 -0.001 c 0.211 0 0.382 0.153 0.382 0.372 v 1.265 c -0.002 0.212 -0.181 0.489 -0.498 0.929 l -3.426 4.891 c 1.271 -0.03 2.616 0.161 3.772 0.81 c 0.261 0.146 0.331 0.364 0.351 0.576 v 1.574 c 0 0.217 -0.237 0.468 -0.487 0.338 c -2.035 -1.066 -4.736 -1.183 -6.987 0.013 c -0.23 0.123 -0.47 -0.125 -0.47 -0.342 v -1.497 c 0 -0.239 0.005 -0.649 0.246 -1.014 l 3.968 -5.693 l -3.455 -0.001 C 50.243 39.717 50.073 39.566 50.072 39.345 z" style="stroke: none; stroke-width: 1; stroke-dasharray: none; stroke-linecap: butt; stroke-linejoin: miter; stroke-miterlimit: 10; fill: rgb(255,255,255); fill-rule: nonzero; opacity: 1;" transform=" matrix(1 0 0 1 0 0) " stroke-linecap="round" />
	<path d="M 25.951 48.56 h -2.012 c -0.192 -0.012 -0.344 -0.156 -0.36 -0.34 l 0.002 -10.326 c 0 -0.206 0.174 -0.371 0.388 -0.371 l 1.873 -0.001 c 0.196 0.01 0.353 0.158 0.365 0.347 v 1.348 h 0.038 c 0.488 -1.304 1.408 -1.912 2.648 -1.912 c 1.258 0 2.047 0.608 2.61 1.912 c 0.488 -1.304 1.596 -1.912 2.779 -1.912 c 0.845 0 1.765 0.348 2.329 1.13 c 0.639 0.87 0.508 2.129 0.508 3.237 l -0.002 6.516 c 0 0.206 -0.173 0.371 -0.388 0.371 H 34.72 c -0.203 -0.013 -0.361 -0.173 -0.361 -0.371 l -0.001 -5.474 c 0 -0.434 0.038 -1.52 -0.057 -1.933 c -0.15 -0.696 -0.6 -0.892 -1.182 -0.892 c -0.489 0 -0.996 0.326 -1.202 0.847 c -0.207 0.522 -0.188 1.391 -0.188 1.978 v 5.473 c 0 0.206 -0.174 0.371 -0.388 0.371 h -2.01 c -0.202 -0.013 -0.361 -0.173 -0.361 -0.371 l -0.002 -5.474 c 0 -1.152 0.188 -2.846 -1.239 -2.846 c -1.446 0 -1.389 1.651 -1.389 2.846 l -0.001 5.473 C 26.339 48.394 26.165 48.56 25.951 48.56 z" style="stroke: none; stroke-width: 1; stroke-dasharray: none; stroke-linecap: butt; stroke-linejoin: miter; stroke-miterlimit: 10; fill: rgb(255,255,255); fill-rule: nonzero; opacity: 1;" transform=" matrix(1 0 0 1 0 0) " stroke-linecap="round" />
	<path d="M 63.151 39.413 c -1.483 0 -1.577 2.02 -1.577 3.28 c 0 1.26 -0.019 3.955 1.559 3.955 c 1.559 0 1.634 -2.173 1.634 -3.498 c 0 -0.869 -0.038 -1.912 -0.301 -2.738 C 64.241 39.695 63.79 39.413 63.151 39.413 z M 63.133 37.305 c 2.986 0 4.6 2.565 4.6 5.824 c 0 3.149 -1.784 5.649 -4.6 5.649 c -2.93 0 -4.526 -2.564 -4.526 -5.758 C 58.607 39.804 60.222 37.305 63.133 37.305 z" style="stroke: none; stroke-width: 1; stroke-dasharray: none; stroke-linecap: butt; stroke-linejoin: miter; stroke-miterlimit: 10; fill: rgb(255,255,255); fill-rule: nonzero; opacity: 1;" transform=" matrix(1 0 0 1 0 0) " stroke-linecap="round" />
	<path d="M 71.606 48.56 h -2.005 c -0.201 -0.013 -0.361 -0.173 -0.361 -0.371 L 69.237 37.86 c 0.017 -0.189 0.184 -0.337 0.387 -0.337 l 1.866 -0.001 c 0.176 0.009 0.321 0.129 0.358 0.289 v 1.579 h 0.038 c 0.564 -1.413 1.352 -2.086 2.741 -2.086 c 0.901 0 1.784 0.326 2.348 1.217 c 0.526 0.826 0.526 2.216 0.526 3.215 v 6.498 c -0.022 0.183 -0.186 0.325 -0.386 0.325 h -2.016 c -0.186 -0.012 -0.336 -0.149 -0.358 -0.325 v -5.606 c 0 -1.13 0.132 -2.782 -1.258 -2.782 c -0.488 0 -0.939 0.326 -1.164 0.826 c -0.282 0.63 -0.32 1.26 -0.32 1.956 v 5.56 C 71.994 48.394 71.82 48.56 71.606 48.56 z" style="stroke: none; stroke-width: 1; stroke-dasharray: none; stroke-linecap: butt; stroke-linejoin: miter; stroke-miterlimit: 10; fill: rgb(255,255,255); fill-rule: nonzero; opacity: 1;" transform=" matrix(1 0 0 1 0 0) " stroke-linecap="round" />
	<path d="M 22.01 46.668 c -0.368 -0.508 -0.76 -0.921 -0.76 -1.864 V 41.67 c 0 -1.329 0.094 -2.548 -0.884 -3.463 c -0.754 -0.723 -1.992 -0.989 -2.961 -1.001 h -0.149 c -1.894 0.02 -3.977 0.747 -4.419 3.079 c -0.047 0.251 0.135 0.383 0.3 0.421 l 1.95 0.211 c 0.182 -0.009 0.315 -0.189 0.35 -0.371 c 0.167 -0.815 0.849 -1.208 1.617 -1.208 c 0.413 0 0.884 0.152 1.129 0.523 c 0.283 0.414 0.244 0.979 0.244 1.459 v 0.261 c -1.167 0.131 -2.691 0.218 -3.782 0.697 c -1.262 0.544 -2.146 1.655 -2.146 3.288 c 0 2.09 1.318 3.136 3.011 3.136 c 1.431 0 2.212 -0.338 3.317 -1.462 c 0.365 0.529 0.485 0.786 1.153 1.341 c 0.15 0.08 0.342 0.072 0.475 -0.047 l 0.005 0.005 c 0.401 -0.358 1.132 -0.992 1.543 -1.336 C 22.168 47.069 22.138 46.852 22.01 46.668 z M 18.052 45.764 c -0.32 0.566 -0.828 0.914 -1.393 0.914 c -0.771 0 -1.223 -0.588 -1.223 -1.459 c 0 -1.714 1.537 -2.025 2.992 -2.025 v 0.436 C 18.428 44.414 18.447 45.067 18.052 45.764 z" style="stroke: none; stroke-width: 1; stroke-dasharray: none; stroke-linecap: butt; stroke-linejoin: miter; stroke-miterlimit: 10; fill: rgb(255,255,255); fill-rule: nonzero; opacity: 1;" transform=" matrix(1 0 0 1 0 0) " stroke-linecap="round" />
	<path d="M 48.383 46.668 c -0.368 -0.508 -0.76 -0.921 -0.76 -1.864 V 41.67 c 0 -1.329 0.095 -2.548 -0.884 -3.463 c -0.754 -0.723 -1.992 -0.989 -2.961 -1.001 h -0.149 c -1.893 0.02 -3.976 0.747 -4.419 3.079 c -0.047 0.251 0.136 0.383 0.3 0.421 l 1.95 0.211 c 0.182 -0.009 0.314 -0.189 0.349 -0.371 c 0.168 -0.815 0.849 -1.208 1.617 -1.208 c 0.414 0 0.884 0.152 1.129 0.523 c 0.283 0.414 0.245 0.979 0.245 1.459 v 0.261 c -1.167 0.131 -2.692 0.218 -3.783 0.697 c -1.26 0.544 -2.146 1.655 -2.146 3.288 c 0 2.09 1.318 3.136 3.011 3.136 c 1.431 0 2.213 -0.338 3.317 -1.462 c 0.365 0.529 0.485 0.786 1.153 1.341 c 0.151 0.08 0.342 0.072 0.475 -0.047 l 0.006 0.005 c 0.401 -0.358 1.131 -0.992 1.542 -1.336 C 48.54 47.069 48.512 46.852 48.383 46.668 z M 44.425 45.764 c -0.32 0.566 -0.828 0.914 -1.393 0.914 c -0.771 0 -1.223 -0.588 -1.223 -1.459 c 0 -1.714 1.537 -2.025 2.992 -2.025 v 0.436 C 44.801 44.414 44.819 45.067 44.425 45.764 z" style="stroke: none; stroke-width: 1; stroke-dasharray: none; stroke-linecap: butt; stroke-linejoin: miter; stroke-miterlimit: 10; fill: rgb(255,255,255); fill-rule: nonzero; opacity: 1;" transform=" matrix(1 0 0 1 0 0) " stroke-linecap="round" />
</g>
</svg>